<?xml version="1.0" encoding="utf-8"?>
<!-- Generator: Adobe Illustrator 23.0.1, SVG Export Plug-In . SVG Version: 6.00 Build 0)  -->
<svg version="1.1" id="Capa_1" xmlns="http://www.w3.org/2000/svg" xmlns:xlink="http://www.w3.org/1999/xlink" x="0px" y="0px"
	 viewBox="0 0 833.33 821.43" style="enable-background:new 0 0 833.33 821.43;" xml:space="preserve">
<path d="M416.33,275.65c-73.4,0-133.3,59.9-133.3,133.3s59.9,133.3,133.3,133.3s133.3-59.9,133.3-133.3S489.73,275.65,416.33,275.65
	z M816.13,408.95c0-55.2,0.5-109.9-2.6-165c-3.1-64-17.7-120.8-64.5-167.6c-46.9-46.9-103.6-61.4-167.6-64.5
	c-55.2-3.1-109.9-2.6-165-2.6c-55.2,0-109.9-0.5-165,2.6c-64,3.1-120.8,17.7-167.6,64.5c-46.9,46.9-61.4,103.6-64.5,167.6
	c-3.1,55.2-2.6,109.9-2.6,165s-0.5,109.9,2.6,165c3.1,64,17.7,120.8,64.5,167.6c46.9,46.9,103.6,61.4,167.6,64.5
	c55.2,3.1,109.9,2.6,165,2.6c55.2,0,109.9,0.5,165-2.6c64-3.1,120.8-17.7,167.6-64.5c46.9-46.9,61.4-103.6,64.5-167.6
	C816.73,518.85,816.13,464.15,816.13,408.95L816.13,408.95z M416.33,614.05c-113.5,0-205.1-91.6-205.1-205.1s91.6-205.1,205.1-205.1
	s205.1,91.6,205.1,205.1S529.83,614.05,416.33,614.05z M629.83,243.35c-26.5,0-47.9-21.4-47.9-47.9s21.4-47.9,47.9-47.9
	s47.9,21.4,47.9,47.9c0.01,6.29-1.23,12.52-3.63,18.34s-5.93,11.1-10.38,15.55c-4.45,4.45-9.73,7.98-15.55,10.38
	C642.36,242.13,636.13,243.36,629.83,243.35L629.83,243.35z"/>
</svg>
