<?xml version="1.0" encoding="utf-8"?>
<!-- Generator: Adobe Illustrator 23.0.1, SVG Export Plug-In . SVG Version: 6.00 Build 0)  -->
<svg version="1.1" id="Capa_1" xmlns="http://www.w3.org/2000/svg" xmlns:xlink="http://www.w3.org/1999/xlink" x="0px" y="0px"
	 viewBox="0 0 550 539.29" style="enable-background:new 0 0 550 539.29;" xml:space="preserve">
<path d="M405.87,258.23c3.9,5.85,7.8,11.7,9.75,21.45h-62.4c0-1.95,0-5.85,1.95-9.75c1.95-3.9,1.95-5.85,5.85-9.75
	c1.95-3.9,5.85-5.85,9.75-7.8s9.75-3.9,15.6-3.9C394.17,250.43,401.97,252.38,405.87,258.23L405.87,258.23z M226.47,244.58
	c3.9-3.9,7.8-9.75,7.8-17.55c0-3.9,0-7.8-1.95-11.7c-1.95-1.95-3.9-5.85-5.85-5.85c-1.95-1.95-5.85-1.95-9.75-3.9h-50.7v44.85h42.9
	C214.77,250.43,220.62,248.48,226.47,244.58L226.47,244.58z M210.87,277.73h-44.85v52.65h44.85c3.9,0,7.8,0,11.7-1.95
	c3.9,0,7.8-1.95,9.75-3.9c1.95-1.95,5.85-3.9,7.8-7.8c1.95-3.9,1.95-7.8,1.95-11.7c0-9.75-1.95-17.55-7.8-21.45
	C228.42,279.68,220.62,277.73,210.87,277.73z M532.62,111.98v315.9c0,52.65-42.9,95.55-95.55,95.55h-315.9
	c-52.65,0-95.55-42.9-95.55-95.55v-315.9c0-52.65,42.9-95.55,95.55-95.55h315.9C489.72,16.43,532.62,59.33,532.62,111.98z
	 M345.42,203.63h78v-19.5h-78V203.63z M283.02,308.93c0-11.7-1.95-21.45-7.8-31.2c-5.85-7.8-13.65-13.65-25.35-17.55
	c7.8-3.9,15.6-9.75,19.5-15.6c3.9-5.85,5.85-13.65,5.85-23.4s-1.95-15.6-3.9-23.4c-3.9-5.85-7.8-11.7-11.7-13.65
	c-5.85-3.9-11.7-5.85-19.5-7.8c-9.75-3.9-17.55-3.9-27.3-3.9h-89.7v191.1h93.6c7.8,0,17.55-1.95,25.35-3.9
	c7.8-1.95,15.6-5.85,21.45-9.75c5.85-3.9,11.7-9.75,15.6-17.55C281.07,326.48,283.02,318.68,283.02,308.93L283.02,308.93z
	 M353.22,303.08h99.45c0-11.7,0-21.45-1.95-31.2c-1.95-9.75-5.85-19.5-11.7-25.35c-5.85-7.8-13.65-13.65-21.45-17.55
	c-9.75-3.9-19.5-7.8-31.2-7.8c-9.75,0-19.5,1.95-29.25,5.85c-7.8,3.9-15.6,9.75-23.4,15.6c-5.85,5.85-11.7,13.65-13.65,23.4
	c-3.9,9.75-5.85,19.5-5.85,29.25s1.95,21.45,5.85,29.25c3.9,9.75,7.8,17.55,13.65,23.4s13.65,11.7,21.45,15.6
	c9.75,3.9,19.5,5.85,29.25,5.85c15.6,0,29.25-3.9,40.95-11.7s19.5-19.5,25.35-35.1h-33.15c-1.95,3.9-3.9,7.8-9.75,11.7
	c-5.85,3.9-11.7,5.85-19.5,5.85c-9.75,0-19.5-1.95-25.35-7.8C357.12,324.53,353.22,314.78,353.22,303.08L353.22,303.08z"/>
</svg>
