<?xml version="1.0" encoding="utf-8"?>
<!-- Generator: Adobe Illustrator 23.0.1, SVG Export Plug-In . SVG Version: 6.00 Build 0)  -->
<svg version="1.1" id="Capa_1" xmlns="http://www.w3.org/2000/svg" xmlns:xlink="http://www.w3.org/1999/xlink" x="0px" y="0px"
	 viewBox="0 0 301.65 62.71" style="enable-background:new 0 0 301.65 62.71;" xml:space="preserve">
<g>
	<path d="M6.57,6.29h11.46l5.11,36.57h0.15L28.4,6.29h11.46v51.1h-7.59V18.7h-0.15l-5.84,38.69h-6.72L13.73,18.7h-0.15v38.69H6.57
		V6.29z"/>
	<path d="M48.4,54.76c-2.09-2.24-3.14-5.4-3.14-9.49V18.4c0-4.09,1.05-7.25,3.14-9.49c2.09-2.24,5.11-3.36,9.05-3.36
		s6.96,1.12,9.05,3.36c2.09,2.24,3.14,5.4,3.14,9.49v26.86c0,4.09-1.05,7.25-3.14,9.49c-2.09,2.24-5.11,3.36-9.05,3.36
		S50.49,57,48.4,54.76z M61.62,45.78V17.89c0-3.36-1.39-5.04-4.16-5.04s-4.16,1.68-4.16,5.04v27.89c0,3.36,1.39,5.04,4.16,5.04
		S61.62,49.14,61.62,45.78z"/>
	<path d="M75.05,6.29h11.9c4.14,0,7.15,0.96,9.05,2.88c1.9,1.92,2.85,4.88,2.85,8.87v3.14c0,5.31-1.75,8.66-5.26,10.07v0.15
		c1.95,0.58,3.32,1.78,4.12,3.58c0.8,1.8,1.2,4.21,1.2,7.23v8.98c0,1.46,0.05,2.64,0.15,3.54c0.1,0.9,0.34,1.79,0.73,2.66h-8.18
		c-0.29-0.83-0.49-1.61-0.58-2.34c-0.1-0.73-0.15-2.04-0.15-3.94v-9.34c0-2.34-0.38-3.97-1.13-4.89c-0.76-0.92-2.06-1.39-3.91-1.39
		h-2.77v21.9h-8.03V6.29z M86,28.19c1.61,0,2.81-0.41,3.61-1.24c0.8-0.83,1.2-2.21,1.2-4.16v-3.94c0-1.85-0.33-3.19-0.99-4.02
		c-0.66-0.83-1.69-1.24-3.1-1.24h-3.65v14.6H86z"/>
	<path d="M102.42,6.29h7.74l3.58,39.27h0.15l3.8-39.27h8.76l3.8,39.27h0.15l3.58-39.27h6.94l-5.18,51.1h-10l-3.65-34.46h-0.15
		l-3.65,34.46H107.6L102.42,6.29z"/>
	<path d="M144.98,6.29h12.12c4.14,0,7.15,0.96,9.05,2.88c1.9,1.92,2.85,4.88,2.85,8.87v2.04c0,2.63-0.43,4.77-1.28,6.42
		c-0.85,1.65-2.15,2.85-3.91,3.58v0.15c3.99,1.36,5.99,4.92,5.99,10.66v4.38c0,3.94-1.03,6.95-3.1,9.02c-2.07,2.07-5.1,3.1-9.09,3.1
		h-12.63V6.29z M156.15,27.09c1.61,0,2.81-0.41,3.61-1.24c0.8-0.83,1.2-2.21,1.2-4.16v-2.85c0-1.85-0.33-3.19-0.99-4.02
		c-0.66-0.83-1.69-1.24-3.1-1.24h-3.87v13.5H156.15z M157.61,50.09c1.41,0,2.46-0.38,3.14-1.13c0.68-0.75,1.02-2.06,1.02-3.91V40.6
		c0-2.34-0.4-3.95-1.2-4.85c-0.8-0.9-2.13-1.35-3.98-1.35h-3.58v15.7H157.61z"/>
	<path d="M172.5,6.29h7.74l3.58,39.27h0.15l3.8-39.27h8.76l3.8,39.27h0.15l3.58-39.27h6.94l-5.18,51.1h-10l-3.65-34.46h-0.15
		l-3.65,34.46h-10.66L172.5,6.29z"/>
	<path d="M216.67,54.8c-2-2.21-2.99-5.39-2.99-9.53v-2.92h7.59v3.5c0,3.31,1.39,4.96,4.16,4.96c1.36,0,2.4-0.4,3.1-1.2
		c0.71-0.8,1.06-2.1,1.06-3.91c0-2.14-0.49-4.03-1.46-5.66c-0.97-1.63-2.77-3.59-5.4-5.88c-3.31-2.92-5.62-5.56-6.94-7.92
		c-1.31-2.36-1.97-5.02-1.97-7.99c0-4.04,1.02-7.17,3.07-9.38c2.04-2.21,5.01-3.32,8.91-3.32c3.84,0,6.75,1.11,8.72,3.32
		c1.97,2.21,2.96,5.39,2.96,9.53v2.12h-7.59v-2.63c0-1.75-0.34-3.03-1.02-3.83c-0.68-0.8-1.68-1.2-2.99-1.2
		c-2.68,0-4.01,1.63-4.01,4.89c0,1.85,0.5,3.58,1.5,5.18c1,1.61,2.81,3.55,5.44,5.84c3.36,2.92,5.67,5.57,6.94,7.96
		c1.27,2.39,1.9,5.18,1.9,8.4c0,4.19-1.03,7.4-3.1,9.64c-2.07,2.24-5.07,3.36-9.02,3.36C221.6,58.12,218.66,57.01,216.67,54.8z"/>
	<path d="M244.73,54.83c-2.02-2.19-3.03-5.28-3.03-9.27V18.11c0-3.99,1.01-7.08,3.03-9.27c2.02-2.19,4.95-3.29,8.8-3.29
		c3.84,0,6.78,1.1,8.8,3.29c2.02,2.19,3.03,5.28,3.03,9.27v5.4h-7.59V17.6c0-3.16-1.34-4.74-4.02-4.74c-2.68,0-4.01,1.58-4.01,4.74
		v28.54c0,3.12,1.34,4.67,4.01,4.67c2.68,0,4.02-1.56,4.02-4.67v-7.81h7.59v7.23c0,3.99-1.01,7.08-3.03,9.27
		c-2.02,2.19-4.95,3.29-8.8,3.29C249.68,58.12,246.75,57.02,244.73,54.83z"/>
	<path d="M270.17,6.29h8.03v20.81h8.61V6.29h8.03v51.1h-8.03v-23h-8.61v23h-8.03V6.29z"/>
</g>
</svg>
