<?xml version="1.0" encoding="utf-8"?>
<!-- Generator: Adobe Illustrator 23.0.1, SVG Export Plug-In . SVG Version: 6.00 Build 0)  -->
<svg version="1.1" id="Capa_1" xmlns="http://www.w3.org/2000/svg" xmlns:xlink="http://www.w3.org/1999/xlink" x="0px" y="0px"
	 viewBox="0 0 153.57 529.76" style="enable-background:new 0 0 153.57 529.76;" xml:space="preserve">
<path d="M76.3,117.36c27.15,0,49.16-22.01,49.16-49.16S103.45,19.05,76.3,19.05S27.14,41.06,27.14,68.2S49.15,117.36,76.3,117.36z"
	/>
<path d="M76.3,313.99c27.15,0,49.16-22.01,49.16-49.16s-22.01-49.16-49.16-49.16s-49.16,22.01-49.16,49.16S49.15,313.99,76.3,313.99
	z"/>
<path d="M76.3,510.62c27.15,0,49.16-22.01,49.16-49.16c0-27.15-22.01-49.16-49.16-49.16s-49.16,22.01-49.16,49.16
	C27.14,488.61,49.15,510.62,76.3,510.62z"/>
</svg>
